<svg xmlns="http://www.w3.org/2000/svg" viewBox="0 0 720.99 731.59"><defs><style>.cls-1{fill:#fff;}</style></defs><g id="Layer_2" data-name="Layer 2"><g id="Layer_1-2" data-name="Layer 1"><polygon class="cls-1" points="720.99 93.68 416.88 429.26 402.02 445.66 384.95 428.78 237.93 283.41 281.05 242.8 417.34 398.28 385.42 397.8 720.99 93.68"/><path class="cls-1" d="M603.5,625.67c-4.78,5.28-9.43,10.84-14.61,15.84l-3.83,3.84c-1.29,1.26-2.54,2.59-3.89,3.78l-8,7.33c-2.67,2.5-5.54,4.7-8.34,7L560.56,667c-.71.57-1.41,1.17-2.13,1.73l-2.19,1.65c-2.91,2.21-5.87,4.37-8.83,6.56-1.46,1.12-3,2.11-4.52,3.15l-4.58,3.08c-24.44,16.56-51.6,29.57-80.19,39.42A117.68,117.68,0,0,1,436,726.75c-1.87.24-3.73.47-5.59.74l-2.78.43c-.93.16-1.86.29-2.79.38l-11.2,1.27c-1.87.19-3.72.48-5.6.58l-5.62.38c-3.74.24-7.49.56-11.23.71l-11.26.26c-1.87,0-3.75.12-5.62.09l-5.63-.14-11.25-.29c-1.88,0-3.75-.21-5.62-.34l-5.62-.42-5.61-.43c-1.87-.16-3.75-.24-5.61-.52L323.75,728l-5.58-.72-5.55-1-11.1-2c-1.85-.29-3.68-.74-5.51-1.16l-5.49-1.26L285,720.67c-1.83-.44-3.67-.81-5.47-1.36a384.12,384.12,0,0,1-83.63-33.15A376.47,376.47,0,0,1,63.88,566a387.56,387.56,0,0,1-41-80.07A382.61,382.61,0,0,1,2.36,398.38c-.55-3.72-.71-7.47-1-11.21L.48,375.94.19,364.68l-.14-5.62c0-.94-.06-1.88,0-2.82l.07-2.81.28-11.25c.07-1.88.06-3.76.19-5.63L1,330.94l.86-11.23.11-1.41.17-1.39.35-2.8.71-5.59.72-5.58c.23-1.87.45-3.73.82-5.58l2-11.09c.34-1.85.65-3.7,1-5.54L9,275.23l2.54-11,.32-1.37.38-1.36.77-2.71,1.54-5.42L16,248l.77-2.71.89-2.67,3.61-10.68c.63-1.77,1.16-3.58,1.87-5.32l2.06-5.25A368.45,368.45,0,0,1,67.55,142a372.34,372.34,0,0,1,59.92-67L136,67.64c2.92-2.37,5.89-4.66,8.84-7,5.81-4.76,12-8.95,18.15-13.33l2.3-1.63,2.36-1.53,4.74-3L181.85,35c6.4-3.92,12.54-8.4,19.74-10.88C257.76,1.77,318.44-5,375,3.61a400.77,400.77,0,0,0-81.22,21.64c-1.61.63-3.23,1.16-4.81,1.86l-4.74,2.06-9.43,4c-3.1,1.45-6.16,3-9.22,4.46s-6.14,2.89-9.08,4.6l-8.92,4.85c-3,1.53-5.82,3.41-8.71,5.12s-5.76,3.46-8.58,5.26L222,63.13c-1.38.92-2.78,1.81-4.22,2.64s-2.81,1.75-4.26,2.54c-2.89,1.61-5.89,3-8.82,4.6a47.14,47.14,0,0,0-4.28,2.53l-4.19,2.68L192,80.8l-2.09,1.34-2,1.45c-5.38,3.88-10.91,7.56-16,11.78-2.6,2.06-5.23,4.07-7.81,6.16l-7.51,6.52a328.26,328.26,0,0,0-52.94,59.16,324.67,324.67,0,0,0-37.32,70l-1.83,4.63c-.63,1.53-1.09,3.13-1.64,4.69L59.62,256l-.79,2.36-.67,2.39-1.36,4.78-1.36,4.78-.68,2.39-.34,1.2-.28,1.21-2.23,9.68-1.12,4.85c-.32,1.62-.59,3.26-.89,4.89l-1.75,9.78c-.33,1.63-.52,3.28-.72,4.92l-.62,4.94-.63,4.93-.32,2.46-.16,1.24L45.61,324l-.75,9.92-.38,5c-.12,1.65-.1,3.32-.16,5l-.25,10L44,356.29c0,.82,0,1.65,0,2.48l.13,5,.25,9.95.76,9.92c.28,3.31.4,6.63.91,9.91a338,338,0,0,0,18.11,77.24,343.3,343.3,0,0,0,36.15,70.65A332.63,332.63,0,0,0,217,647.52a340.08,340.08,0,0,0,73.76,29.23c1.58.5,3.21.81,4.82,1.19l4.85,1.12,4.84,1.12c1.61.37,3.22.77,4.86,1l9.79,1.74,4.89.87,4.94.62,9.86,1.26c1.64.25,3.3.31,4.95.45l5,.38,5,.38c1.65.1,3.3.3,5,.3l9.95.25,5,.13c1.66,0,3.32-.06,5-.09l9.95-.22c3.32-.13,6.62-.43,9.93-.63l5-.34c1.65-.08,3.29-.34,4.94-.51l9.89-1.12c3.29-.4,6.54-1,9.79-1.68l4.87-1c.82-.15,1.62-.35,2.42-.56l2.42-.58a84.39,84.39,0,0,1,9.79-1.65l9.94-1.26,5-.63c1.67-.22,3.3-.56,5-.83l10-1.72,9.89-2.15,5-1.05,4.92-1.27c3.29-.87,6.61-1.68,9.9-2.59l9.81-3c1.63-.52,3.31-.94,4.92-1.52l4.87-1.69,4.89-1.7c1.63-.58,3.28-1.11,4.87-1.77,3.21-1.27,6.42-2.57,9.67-3.82l2.44-1c.8-.33,1.59-.69,2.39-1l4.78-2.1c3.18-1.44,6.45-2.75,9.55-4.35l9.5-4.61c3.17-1.55,6.2-3.32,9.36-4.95l4.71-2.5c1.56-.84,3.06-1.78,4.6-2.67Z"/></g></g></svg>